:SAMPLES-PER-SECOND 30
:FULLY-SPECIFIED
:DEGREES
63
root  -47.4238 17.593 -4.06219 15.9271 76.8648 34.1256
RightUpLeg  -25.6684 -4.05859 -14.2342
RightLeg  136.391 24.5139 -10.6373
RightFoot  -40.8389 2.97943 12.0423
RightToes  5.82075e-010 -1.59028e-015 9.93923e-017
Spine  61.6865 1.50422 -2.81829
Spine1  12.8352 1.06526 -12.9008
HEad  -31.541 1.56177 4.08966
LeftShoulder1  9.93923e-017 0 1.22299e-017
LeftArm  -9.06177 -56.8581 -67.075
LeftForeArm  -130.709 -49.1689 167.754
LeftHand  0.427496 4.94495 13.3263
RightShoulder  1.98785e-016 -4.96962e-017 1.55301e-017
RightArm  1.24384 46.3272 70.7299
RightForeArm  -90.1776 45.9014 -154.769
RightHand  4.1712 -17.4636 -24.7665
LeftUpLeg  -84.1344 -0.953382 -3.6324
LeftLeg  92.0902 -14.2386 11.5993
LeftFoot  2.95271 0.872262 -6.00756
LeftToes  1.8463e-010 2.29954e-012 -3.51709e-011
64
root  -46.474 18.5489 -4.22603 11.8284 77.6427 28.1144
RightUpLeg  -24.2822 -5.89725 -14.6892
RightLeg  132.152 23.0659 -11.043
RightFoot  -38.7348 2.51932 11.0467
RightToes  5.82075e-010 -1.59028e-015 9.93923e-017
Spine  60.5547 1.7406 -3.15224
Spine1  12.8656 1.07261 -12.0605
HEad  -31.0529 1.64371 4.59852
LeftShoulder1  9.93923e-017 0 1.22299e-017
LeftArm  -8.3397 -56.2278 -67.6521
LeftForeArm  -130.816 -49.3321 167.636
LeftHand  0.491198 5.14747 12.7404
RightShoulder  1.98785e-016 -4.96962e-017 1.55301e-017
RightArm  0.930723 45.3067 70.3178
RightForeArm  -90.4178 45.7384 -154.997
RightHand  4.16404 -17.4506 -24.7393
LeftUpLeg  -82.8398 -0.88875 -3.57011
LeftLeg  92.5758 -14.2551 10.8483
LeftFoot  0.552144 0.715935 -5.83104
LeftToes  1.8463e-010 2.29954e-012 -3.51709e-011
65
root  -45.5628 19.5713 -4.32791 7.96619 78.6236 22.8167
RightUpLeg  -22.3752 -7.16763 -15.2859
RightLeg  128.027 20.6537 -10.1825
RightFoot  -36.4265 2.01385 9.73464
RightToes  5.82075e-010 -1.59028e-015 9.93923e-017
Spine  59.6217 1.91826 -3.55658
Spine1  13.0561 1.03571 -11.2788
HEad  -31.0252 1.92534 5.25316
LeftShoulder1  9.93923e-017 0 1.22299e-017
LeftArm  -7.77901 -55.4808 -68.1425
LeftForeArm  -131.064 -49.7418 167.334
LeftHand  0.512119 5.22251 12.6738
RightShoulder  1.98785e-016 -4.96962e-017 1.55301e-017
RightArm  0.524256 43.927 69.7452
RightForeArm  -90.5275 45.8178 -154.901
RightHand  4.16276 -17.4194 -24.8229
LeftUpLeg  -80.7074 -1.01391 -3.48079
LeftLeg  92.5486 -14.158 10.1419
LeftFoot  -1.97958 0.548829 -5.55662
LeftToes  1.8463e-010 2.29954e-012 -3.51709e-011
66
root  -44.6474 20.6324 -4.38249 3.84851 79.7381 17.5868
RightUpLeg  -19.7974 -8.14612 -15.7771
RightLeg  123.725 17.9853 -8.51769
RightFoot  -34.6607 1.76031 9.23347
RightToes  5.82075e-010 -1.59028e-015 9.93923e-017
Spine  58.7345 2.0389 -3.92439
Spine1  13.2953 0.923028 -10.5126
HEad  -31.1616 2.42399 5.77241
LeftShoulder1  9.93923e-017 0 1.22299e-017
LeftArm  -7.2177 -54.3855 -68.7008
LeftForeArm  -131.386 -50.2401 166.961
LeftHand  0.459386 5.07674 13.4445
RightShoulder  1.98785e-016 -4.96962e-017 1.55301e-017
RightArm  0.400656 42.1843 69.4074
RightForeArm  -90.7264 45.8765 -154.837
RightHand  4.18061 -17.4135 -25.0064
LeftUpLeg  -78.0934 -1.16687 -3.42771
LeftLeg  92.2523 -14.0016 9.3704
LeftFoot  -4.44526 0.334515 -4.45721
LeftToes  1.8463e-010 2.29954e-012 -3.51709e-011
67
root  -43.7012 21.7065 -4.41196 -1.57556 80.9008 11.0209
RightUpLeg  -17.0356 -8.83213 -15.8184
RightLeg  119.219 15.3896 -6.15969
RightFoot  -32.6779 1.68587 9.75894
RightToes  5.82075e-010 -1.59028e-015 9.93923e-017
Spine  57.4566 2.02385 -3.99265
Spine1  13.7129 0.820065 -9.68308
HEad  -30.9486 2.95295 6.07747
LeftShoulder1  9.93923e-017 0 1.22299e-017
LeftArm  -6.38188 -52.4028 -69.7601
LeftForeArm  -131.639 -50.6662 166.633
LeftHand  0.410861 4.93238 13.967
RightShoulder  1.98785e-016 -4.96962e-017 1.55301e-017
RightArm  0.774798 40.0453 69.6346
RightForeArm  -91.4061 45.7013 -155.111
RightHand  4.1346 -17.2731 -25.0116
LeftUpLeg  -75.3695 -0.666285 -3.56196
LeftLeg  91.8236 -13.7845 8.14711
LeftFoot  -6.92216 0.0814476 -1.72532
LeftToes  1.8463e-010 2.29954e-012 -3.51709e-011
68
root  -42.7938 22.8317 -4.43727 -7.8313 81.994 3.35498
RightUpLeg  -14.9366 -8.88526 -15.1226
RightLeg  114.479 13.2271 -3.4684
RightFoot  -29.4876 1.51703 10.5144
RightToes  5.82075e-010 -1.59028e-015 9.93923e-017
Spine  55.8142 1.8899 -3.87695
Spine1  14.2607 0.821359 -8.92468
HEad  -30.2198 3.35449 6.45663
LeftShoulder1  9.93923e-017 0 1.22299e-017
LeftArm  -5.04224 -49.0139 -71.5617
LeftForeArm  -131.108 -51.2151 166.133
LeftHand  0.389724 4.80423 13.3545
RightShoulder  1.98785e-016 -4.96962e-017 1.55301e-017
RightArm  1.34544 37.4808 70.2918
RightForeArm  -91.9748 45.6271 -155.244
RightHand  4.04847 -17.0359 -24.9395
LeftUpLeg  -72.6898 -0.566747 -3.38722
LeftLeg  90.6468 -13.5037 7.2597
LeftFoot  -8.84618 -0.0552613 0.760417
LeftToes  1.8463e-010 2.29954e-012 -3.51709e-011
69
root  -41.892 23.9771 -4.48641 -15.1696 82.6617 -5.82947
RightUpLeg  -13.7418 -8.24547 -13.5902
RightLeg  109.507 11.8335 -1.15029
RightFoot  -25.8989 1.28406 11.3906
RightToes  5.82075e-010 -1.59028e-015 9.93923e-017
Spine  53.7373 1.66449 -3.47421
Spine1  14.6029 1.02148 -8.46638
HEad  -29.4083 3.5798 7.14574
LeftShoulder1  9.93923e-017 0 1.22299e-017
LeftArm  -3.25543 -44.0685 -73.7866
LeftForeArm  -129.352 -52.4377 164.924
LeftHand  0.331206 4.50676 12.5719
RightShoulder  1.98785e-016 -4.96962e-017 1.55301e-017
RightArm  1.85322 34.3464 71.1049
RightForeArm  -92.2944 45.9011 -154.911
RightHand  3.99793 -16.9146 -24.8383
LeftUpLeg  -70.401 -0.955889 -2.76528
LeftLeg  88.9455 -13.2116 6.89269
LeftFoot  -10.5701 -0.0752448 1.78332
LeftToes  1.8463e-010 2.29954e-012 -3.51709e-011
70
root  -41.0843 25.1916 -4.53439 -19.2015 83.3677 -11.393
RightUpLeg  -12.9549 -7.56698 -12.1531
RightLeg  104.357 11.4098 -0.514944
RightFoot  -21.6646 0.985219 13.1211
RightToes  5.82075e-010 -1.59028e-015 9.93923e-017
Spine  52.3336 1.63258 -3.48386
Spine1  14.5043 1.14467 -7.92127
HEad  -29.0996 3.53729 8.04084
LeftShoulder1  9.93923e-017 0 1.22299e-017
LeftArm  -1.36498 -37.8736 -75.8909
LeftForeArm  -127.14 -54.7933 162.477
LeftHand  0.25362 4.21636 12.686
RightShoulder  1.98785e-016 -4.96962e-017 1.55301e-017
RightArm  2.34287 30.3687 72.0345
RightForeArm  -92.632 46.3838 -154.297
RightHand  4.03485 -16.9343 -25.1323
LeftUpLeg  -67.487 -1.64572 -2.61641
LeftLeg  86.2327 -12.7941 6.88303
LeftFoot  -12.1759 -0.0570167 1.94006
LeftToes  1.8463e-010 2.29954e-012 -3.51709e-011
71
root  -40.2955 26.3648 -4.57995 -20.4099 84.2535 -13.7983
RightUpLeg  -12.7006 -7.15068 -11.0118
RightLeg  99.6246 11.5727 -2.0311
RightFoot  -14.8858 0.213677 14.7327
RightToes  5.82075e-010 -1.59028e-015 9.93923e-017
Spine  51.2038 1.71096 -3.72492
Spine1  14.3354 1.13553 -7.33563
HEad  -29.38 3.18086 8.88294
LeftShoulder1  9.93923e-017 0 1.22299e-017
LeftArm  0.266586 -31.1605 -77.5665
LeftForeArm  -124.881 -58.386 158.161
LeftHand  0.252194 4.23553 12.9358
RightShoulder  1.98785e-016 -4.96962e-017 1.55301e-017
RightArm  2.86847 25.4213 73.2177
RightForeArm  -93.0207 47.0435 -153.424
RightHand  3.96884 -16.603 -25.5756
LeftUpLeg  -64.1781 -2.28231 -3.01668
LeftLeg  83.088 -12.3071 6.94821
LeftFoot  -13.7251 -0.0337176 2.17117
LeftToes  1.8463e-010 2.29954e-012 -3.51709e-011
72
root  -39.5401 27.3826 -4.61781 -18.2369 85.036 -12.7197
RightUpLeg  -13.7666 -6.41502 -9.91736
RightLeg  96.2656 11.8002 -4.65303
RightFoot  -5.20929 -0.969629 14.0102
RightToes  5.82075e-010 -1.59028e-015 9.93923e-017
Spine  49.6996 1.90148 -4.13166
Spine1  14.4781 1.17386 -7.05708
HEad  -29.8005 2.70973 9.51244
LeftShoulder1  9.93923e-017 0 1.22299e-017
LeftArm  1.49405 -24.2634 -78.7285
LeftForeArm  -121.248 -63.0787 150.561
LeftHand  0.339803 4.52802 12.4612
RightShoulder  1.98785e-016 -4.96962e-017 1.55301e-017
RightArm  3.52247 19.6746 74.7404
RightForeArm  -93.398 48.2662 -151.693
RightHand  3.78537 -15.9776 -25.8598
LeftUpLeg  -61.2155 -2.70601 -3.64171
LeftLeg  80.1655 -11.8615 6.87154
LeftFoot  -14.8156 -0.0135811 2.39792
LeftToes  1.8463e-010 2.29954e-012 -3.51709e-011
73
root  -38.8859 28.2737 -4.63577 -11.2657 85.5455 -6.63953
RightUpLeg  -16.0527 -5.07553 -8.85819
RightLeg  94.6515 11.9147 -6.62785
RightFoot  3.33842 -1.59377 11.1223
RightToes  5.82075e-010 -1.59028e-015 9.93923e-017
Spine  47.9962 2.2477 -4.8806
Spine1  14.7335 1.28335 -7.05587
HEad  -29.9719 2.41646 9.89397
LeftShoulder1  9.93923e-017 0 1.22299e-017
LeftArm  2.86838 -17.6188 -79.4223
LeftForeArm  -109.449 -68.7924 134.494
LeftHand  0.495163 5.01682 10.8753
RightShoulder  1.98785e-016 -4.96962e-017 1.55301e-017
RightArm  4.42001 13.4981 76.4613
RightForeArm  -92.9274 50.6707 -147.82
RightHand  3.5603 -15.3012 -25.9004
LeftUpLeg  -58.5571 -3.05026 -4.33928
LeftLeg  77.4432 -11.4677 6.69131
LeftFoot  -15.3466 -0.00651689 2.26083
LeftToes  1.8463e-010 2.29954e-012 -3.51709e-011
